# xmcd CD database file
#
# Track frame offsets:
#	150
#	22273
#	43753
#	69565
#	105988
#
# Disc length: 1706 seconds
#
# Revision: 4
# Processed by: cddbd v1.5.2PL0 Copyright (c) Steve Scherf et al.
# Submitted via: CDex 1.70beta2
#
DISCID=3e06a805
DTITLE=コードギアス 反逆のルルーシュ - コードギアス 反逆のルルーシュ Sound Episode 3
DYEAR=2007
DGENRE=Anime
TTITLE0=晴れのち夏の雨
TTITLE1=短編ドラマ STAGE11.351 「拘束衣 の 女」
TTITLE2=短編ドラマ STAGE15.447 「他人 ごっこ」
TTITLE3=連続ドラマ 「戻らない 夏の 日」 STAGE0.522 「秘密基地 の 唄」
TTITLE4=晴れのち夏の海 [instrumental]
EXTD=YEAR: 2007
EXTT0=
EXTT1=
EXTT2=
EXTT3=
EXTT4=
PLAYORDER=
